<svg width="110" height="25" viewBox="0 0 110 25" fill="none" xmlns="http://www.w3.org/2000/svg">
<path d="M18.744 24L18.456 21.12C18.2 21.5467 17.8587 21.9627 17.432 22.368C17.0267 22.752 16.536 23.104 15.96 23.424C15.384 23.744 14.7227 24 13.976 24.192C13.2293 24.384 12.408 24.48 11.512 24.48C10.04 24.48 8.62133 24.2134 7.25599 23.68C5.91199 23.1467 4.72799 22.3787 3.70399 21.376C2.67999 20.352 1.85866 19.1147 1.23999 17.664C0.642661 16.192 0.343994 14.5174 0.343994 12.64C0.343994 10.784 0.663994 9.12003 1.30399 7.64803C1.94399 6.17603 2.78666 4.9387 3.83199 3.93603C4.89866 2.93336 6.11466 2.16536 7.47999 1.63203C8.86666 1.0987 10.296 0.832031 11.768 0.832031C13.1333 0.832031 14.3813 1.02403 15.512 1.40803C16.6427 1.7707 17.6347 2.27203 18.488 2.91203C19.3627 3.5307 20.088 4.25603 20.664 5.08803C21.2613 5.92003 21.7093 6.80536 22.008 7.74403L18.392 9.12003C18.2 8.48003 17.912 7.87203 17.528 7.29603C17.1653 6.72003 16.7067 6.2187 16.152 5.79203C15.5973 5.36536 14.9467 5.02403 14.2 4.76803C13.4747 4.51203 12.664 4.38403 11.768 4.38403C10.8507 4.38403 9.94399 4.5547 9.04799 4.89603C8.15199 5.21603 7.34133 5.71737 6.61599 6.40003C5.91199 7.0827 5.33599 7.9467 4.88799 8.99203C4.46133 10.016 4.24799 11.232 4.24799 12.64C4.24799 14.0267 4.45066 15.2427 4.85599 16.288C5.28266 17.312 5.83733 18.176 6.51999 18.88C7.22399 19.5627 8.02399 20.0854 8.91999 20.448C9.816 20.7894 10.7547 20.96 11.736 20.96C12.888 20.96 13.8587 20.7894 14.648 20.448C15.4587 20.0854 16.12 19.648 16.632 19.136C17.144 18.624 17.528 18.08 17.784 17.504C18.04 16.9067 18.1893 16.3627 18.232 15.872H10.744V12.512H21.848V24H18.744Z" fill="#0C0D0F"/>
<path d="M35.1092 15.04H32.2932V24H28.4212V1.31203H37.1252C38.2132 1.31203 39.1946 1.49336 40.0692 1.85603C40.9652 2.19736 41.7119 2.68803 42.3092 3.32803C42.9279 3.9467 43.3972 4.67203 43.7172 5.50403C44.0586 6.33603 44.2292 7.23203 44.2292 8.19203C44.2292 9.81336 43.7706 11.2 42.8532 12.352C41.9572 13.504 40.7092 14.272 39.1092 14.656L44.2292 24H39.8772L35.1092 15.04ZM36.4212 11.648C37.6159 11.648 38.5652 11.3387 39.2692 10.72C39.9732 10.08 40.3252 9.23736 40.3252 8.19203C40.3252 7.12536 39.9732 6.2827 39.2692 5.66403C38.5652 5.02403 37.6159 4.70403 36.4212 4.70403H32.2932V11.648H36.4212Z" fill="#0C0D0F"/>
<path d="M50.2475 24V1.31203H64.2635V4.89603H54.0875V10.912H63.3035V14.4H54.0875V20.416H64.2635V24H50.2475Z" fill="#0C0D0F"/>
<path d="M84.1685 18.304H74.5685L72.4565 24H68.3925L77.2245 1.31203H81.6725L90.5045 24H86.3125L84.1685 18.304ZM75.9125 14.752H82.8245L79.3685 5.47203L75.9125 14.752Z" fill="#0C0D0F"/>
<path d="M102.265 4.92803V24H98.4247V4.92803H91.0647V1.31203H109.657V4.92803H102.265Z" fill="#0C0D0F"/>
</svg>
